<svg width="232" height="72" viewBox="0 0 232 72" fill="none" xmlns="http://www.w3.org/2000/svg">
<g id="Layer_1">
<g id="Vector" filter="url(#filter0_d_173_114)">
<path d="M142.382 10.9459C142.29 13.31 142.198 15.674 142.104 18.0381C139.344 17.9155 136.581 17.8142 133.821 17.734C131.655 17.6704 130.036 18.4317 129.996 20.758C129.958 22.8958 129.918 25.0336 129.878 27.1714C133.239 27.2468 136.6 27.3529 139.961 27.4919C139.872 29.856 139.782 32.22 139.693 34.5841C136.376 34.4474 133.06 34.3413 129.744 34.2682C129.687 37.1626 129.628 40.057 129.569 42.9514C129.522 45.2777 131.028 46.105 133.079 46.1663C135.698 46.2441 138.314 46.3407 140.932 46.4562C140.831 48.8014 140.73 51.1442 140.626 53.4894C137.06 53.3315 133.496 53.2089 129.93 53.1241C120.875 52.9426 120.714 47.2175 120.733 41.2944C120.757 34.8976 120.771 28.5007 120.78 22.1062C120.787 16.2232 120.955 10.3591 130.802 10.5547C134.663 10.6443 138.524 10.7762 142.387 10.9459H142.382Z" fill="url(#paint0_linear_173_114)" shape-rendering="crispEdges"/>
<path d="M142.382 10.9459C142.29 13.31 142.198 15.674 142.104 18.0381C139.344 17.9155 136.581 17.8142 133.821 17.734C131.655 17.6704 130.036 18.4317 129.996 20.758C129.958 22.8958 129.918 25.0336 129.878 27.1714C133.239 27.2468 136.6 27.3529 139.961 27.4919C139.872 29.856 139.782 32.22 139.693 34.5841C136.376 34.4474 133.06 34.3413 129.744 34.2682C129.687 37.1626 129.628 40.057 129.569 42.9514C129.522 45.2777 131.028 46.105 133.079 46.1663C135.698 46.2441 138.314 46.3407 140.932 46.4562C140.831 48.8014 140.73 51.1442 140.626 53.4894C137.06 53.3315 133.496 53.2089 129.93 53.1241C120.875 52.9426 120.714 47.2175 120.733 41.2944C120.757 34.8976 120.771 28.5007 120.78 22.1062C120.787 16.2232 120.955 10.3591 130.802 10.5547C134.663 10.6443 138.524 10.7762 142.387 10.9459H142.382Z" fill="url(#paint1_linear_173_114)" shape-rendering="crispEdges"/>
<path d="M130.179 34.722C133.344 34.7946 136.509 34.8971 139.674 35.0276L140.119 35.0459L140.136 34.6009L140.271 31.0548L140.405 27.5087L140.422 27.0667L139.98 27.0484C136.763 26.9153 133.547 26.8125 130.33 26.7377C130.368 24.7473 130.405 22.7566 130.44 20.7659L130.44 20.7657C130.458 19.7163 130.823 19.0908 131.365 18.7143C131.933 18.3193 132.767 18.1472 133.808 18.1777L133.809 18.1777C136.566 18.2578 139.326 18.3591 142.084 18.4815L142.53 18.5013L142.547 18.0558C142.642 15.6958 142.733 13.3359 142.825 10.9762L142.826 10.9632L142.396 10.9465L142.406 10.5025C138.54 10.3327 134.676 10.2006 130.812 10.1109L130.811 10.1109C125.799 10.0113 123.104 11.4582 121.718 13.8268C120.372 16.1267 120.34 19.1949 120.336 22.1056L130.179 34.722ZM130.179 34.722C130.125 37.4682 130.069 40.2144 130.013 42.9604C129.992 44.0182 130.319 44.6618 130.816 45.0626C131.335 45.4808 132.111 45.6932 133.092 45.7226C133.092 45.7226 133.092 45.7226 133.092 45.7226L130.179 34.722ZM124.469 52.4278C125.834 53.1218 127.613 53.5216 129.921 53.5679L120.336 22.1057C120.327 28.4999 120.313 34.8964 120.289 41.2928L120.289 41.293C120.28 44.2267 120.305 47.2599 121.537 49.5711C122.163 50.745 123.096 51.7298 124.469 52.4278Z" stroke="#B99410" stroke-opacity="0.4" stroke-width="0.887779" shape-rendering="crispEdges"/>
</g>
<g id="Vector_2" filter="url(#filter1_d_173_114)">
<path d="M167.465 45.221C167.564 45.2304 167.66 45.2375 167.759 45.2469C168.143 34.4519 168.471 23.6523 168.742 12.8502C171.662 13.1001 174.583 13.3711 177.501 13.6681C176.15 27.7982 174.762 41.9236 173.338 56.0442C169.777 55.6812 166.213 55.3583 162.649 55.0708C160.078 44.0425 157.268 33.0307 154.221 22.0401C154.119 22.033 154.016 22.0283 153.914 22.0212C153.895 32.8256 153.82 43.6277 153.688 54.4273C150.989 54.2576 148.291 54.1091 145.592 53.9819C146.249 39.8046 146.872 25.6251 147.456 11.4431C151.736 11.6435 156.014 11.8933 160.292 12.1926C162.897 23.1879 165.287 34.1997 167.462 45.221H167.465Z" fill="url(#paint2_linear_173_114)" shape-rendering="crispEdges"/>
<path d="M167.465 45.221C167.564 45.2304 167.66 45.2375 167.759 45.2469C168.143 34.4519 168.471 23.6523 168.742 12.8502C171.662 13.1001 174.583 13.3711 177.501 13.6681C176.15 27.7982 174.762 41.9236 173.338 56.0442C169.777 55.6812 166.213 55.3583 162.649 55.0708C160.078 44.0425 157.268 33.0307 154.221 22.0401C154.119 22.033 154.016 22.0283 153.914 22.0212C153.895 32.8256 153.82 43.6277 153.688 54.4273C150.989 54.2576 148.291 54.1091 145.592 53.9819C146.249 39.8046 146.872 25.6251 147.456 11.4431C151.736 11.6435 156.014 11.8933 160.292 12.1926C162.897 23.1879 165.287 34.1997 167.462 45.221H167.465Z" fill="url(#paint3_linear_173_114)" shape-rendering="crispEdges"/>
<path d="M154.354 24.1907C157.184 34.5006 159.805 44.8288 162.217 55.1716L162.291 55.4872L162.614 55.5132C166.174 55.8005 169.735 56.1232 173.293 56.4858L173.735 56.5309L173.78 56.0887C175.203 41.9673 176.592 27.8412 177.942 13.7103L177.984 13.2712L177.546 13.2265C174.625 12.9292 171.702 12.658 168.78 12.408L168.31 12.3678L168.298 12.8391C168.049 22.7827 167.751 32.7243 167.406 42.6621C165.362 32.4611 163.135 22.2686 160.724 12.0903L160.649 11.7726L160.323 11.7498C156.042 11.4503 151.761 11.2002 147.477 10.9997L147.031 10.9788L147.013 11.4248C146.428 25.606 145.806 39.7848 145.148 53.9613L145.128 54.4044L145.571 54.4253C148.267 54.5524 150.964 54.7008 153.66 54.8703L154.126 54.8996L154.132 54.4328C154.255 44.3541 154.329 34.2734 154.354 24.1907Z" stroke="#B99410" stroke-opacity="0.4" stroke-width="0.887779" shape-rendering="crispEdges"/>
</g>
<g id="Vector_3" filter="url(#filter2_d_173_114)">
<path d="M188.859 22.4974C186.537 22.2193 184.213 21.9577 181.889 21.7102C182.139 19.2636 182.386 16.8147 182.632 14.3658C190.466 15.2002 198.294 16.2019 206.109 17.3733C205.758 19.8081 205.407 22.2429 205.056 24.6776C202.739 24.3312 200.42 23.9988 198.1 23.6806C196.568 35.3123 195.01 46.9416 193.429 58.5686C190.546 58.1726 187.664 57.8026 184.779 57.4585C186.165 45.8079 187.525 34.155 188.859 22.4974Z" fill="url(#paint4_linear_173_114)" shape-rendering="crispEdges"/>
<path d="M188.859 22.4974C186.537 22.2193 184.213 21.9577 181.889 21.7102C182.139 19.2636 182.386 16.8147 182.632 14.3658C190.466 15.2002 198.294 16.2019 206.109 17.3733C205.758 19.8081 205.407 22.2429 205.056 24.6776C202.739 24.3312 200.42 23.9988 198.1 23.6806C196.568 35.3123 195.01 46.9416 193.429 58.5686C190.546 58.1726 187.664 57.8026 184.779 57.4585C186.165 45.8079 187.525 34.155 188.859 22.4974Z" fill="url(#paint5_linear_173_114)" shape-rendering="crispEdges"/>
<path d="M198.482 24.1812C200.652 24.4806 202.822 24.7924 204.99 25.1166L205.432 25.1826L205.495 24.741L206.549 17.4367L206.612 16.9998L206.175 16.9344C198.353 15.762 190.519 14.7595 182.679 13.9245L182.234 13.8771L182.19 14.3216C181.945 16.7703 181.697 19.2189 181.448 21.6651L181.403 22.1048L181.842 22.1516C184.018 22.3833 186.194 22.6274 188.367 22.8858C187.05 34.3964 185.706 45.9024 184.338 57.4061L184.286 57.8467L184.726 57.8993C187.609 58.2431 190.489 58.6128 193.369 59.0084L193.809 59.0689L193.869 58.6285C195.43 47.1484 196.969 35.666 198.482 24.1812Z" stroke="#B99410" stroke-opacity="0.4" stroke-width="0.887779" shape-rendering="crispEdges"/>
</g>
<g id="Union" filter="url(#filter3_d_173_114)">
<mask id="path-7-outside-1_173_114" maskUnits="userSpaceOnUse" x="201.89" y="32.7076" width="25" height="21" fill="black">
<rect fill="white" x="201.89" y="32.7076" width="25" height="21"/>
<path fill-rule="evenodd" clip-rule="evenodd" d="M220.184 34.3181L212.241 33.7076C211.925 35.2886 211.607 36.8693 211.288 38.4499C209.712 38.0987 208.137 37.7457 206.563 37.391L203.89 44.8956C205.841 45.2713 207.793 45.6446 209.745 46.0154C209.333 48.02 208.918 50.0243 208.5 52.0284C211.387 52.2382 212.967 52.3584 215.852 52.5941C216.269 50.8629 216.685 49.1313 217.098 47.3993C218.848 47.7257 220.599 48.05 222.35 48.3722C223.309 45.6405 223.84 44.1485 224.822 41.4262C222.823 40.9923 220.824 40.5562 218.826 40.1176C219.281 38.1847 219.734 36.2515 220.184 34.3181Z"/>
</mask>
<path fill-rule="evenodd" clip-rule="evenodd" d="M220.184 34.3181L212.241 33.7076C211.925 35.2886 211.607 36.8693 211.288 38.4499C209.712 38.0987 208.137 37.7457 206.563 37.391L203.89 44.8956C205.841 45.2713 207.793 45.6446 209.745 46.0154C209.333 48.02 208.918 50.0243 208.5 52.0284C211.387 52.2382 212.967 52.3584 215.852 52.5941C216.269 50.8629 216.685 49.1313 217.098 47.3993C218.848 47.7257 220.599 48.05 222.35 48.3722C223.309 45.6405 223.84 44.1485 224.822 41.4262C222.823 40.9923 220.824 40.5562 218.826 40.1176C219.281 38.1847 219.734 36.2515 220.184 34.3181Z" fill="url(#paint6_linear_173_114)" shape-rendering="crispEdges"/>
<path fill-rule="evenodd" clip-rule="evenodd" d="M220.184 34.3181L212.241 33.7076C211.925 35.2886 211.607 36.8693 211.288 38.4499C209.712 38.0987 208.137 37.7457 206.563 37.391L203.89 44.8956C205.841 45.2713 207.793 45.6446 209.745 46.0154C209.333 48.02 208.918 50.0243 208.5 52.0284C211.387 52.2382 212.967 52.3584 215.852 52.5941C216.269 50.8629 216.685 49.1313 217.098 47.3993C218.848 47.7257 220.599 48.05 222.35 48.3722C223.309 45.6405 223.84 44.1485 224.822 41.4262C222.823 40.9923 220.824 40.5562 218.826 40.1176C219.281 38.1847 219.734 36.2515 220.184 34.3181Z" fill="url(#paint7_linear_173_114)" shape-rendering="crispEdges"/>
<path d="M212.241 33.7076L212.309 32.8225L211.524 32.7622L211.37 33.5337L212.241 33.7076ZM220.184 34.3181L221.048 34.5194L221.283 33.5122L220.252 33.4329L220.184 34.3181ZM211.288 38.4499L211.094 39.3164L211.978 39.5136L212.158 38.6258L211.288 38.4499ZM206.563 37.391L206.758 36.525L205.991 36.3521L205.727 37.0932L206.563 37.391ZM203.89 44.8956L203.054 44.5978L202.707 45.5719L203.722 45.7674L203.89 44.8956ZM209.745 46.0154L210.615 46.1942L210.796 45.3113L209.911 45.1432L209.745 46.0154ZM208.5 52.0284L207.631 51.8472L207.424 52.8404L208.436 52.9139L208.5 52.0284ZM215.852 52.5941L215.779 53.4789L216.536 53.5408L216.715 52.8023L215.852 52.5941ZM217.098 47.3993L217.261 46.5266L216.431 46.3718L216.235 47.1931L217.098 47.3993ZM222.35 48.3722L222.189 49.2453L222.936 49.3827L223.188 48.6663L222.35 48.3722ZM224.822 41.4262L225.657 41.7277L226.002 40.7736L225.011 40.5586L224.822 41.4262ZM218.826 40.1176L217.962 39.9141L217.755 40.7915L218.635 40.9847L218.826 40.1176ZM212.173 34.5928L220.116 35.2033L220.252 33.4329L212.309 32.8225L212.173 34.5928ZM212.158 38.6258C212.477 37.0446 212.795 35.4632 213.111 33.8816L211.37 33.5337C211.054 35.114 210.737 36.6941 210.417 38.2741L212.158 38.6258ZM206.368 38.2571C207.943 38.6119 209.518 38.965 211.094 39.3164L211.481 37.5834C209.906 37.2323 208.332 36.8795 206.758 36.525L206.368 38.2571ZM204.726 45.1935L207.399 37.6889L205.727 37.0932L203.054 44.5978L204.726 45.1935ZM209.911 45.1432C207.959 44.7725 206.008 44.3994 204.058 44.0239L203.722 45.7674C205.674 46.1432 207.626 46.5166 209.58 46.8876L209.911 45.1432ZM209.369 52.2096C209.787 50.2047 210.202 48.1996 210.615 46.1942L208.876 45.8365C208.464 47.8404 208.049 49.8439 207.631 51.8472L209.369 52.2096ZM215.924 51.7093C213.036 51.4733 211.454 51.3529 208.564 51.143L208.436 52.9139C211.321 53.1235 212.897 53.2435 215.779 53.4789L215.924 51.7093ZM216.235 47.1931C215.821 48.9244 215.406 50.6553 214.989 52.386L216.715 52.8023C217.132 51.0704 217.548 49.3382 217.962 47.6056L216.235 47.1931ZM222.511 47.4991C220.76 47.177 219.01 46.8528 217.261 46.5266L216.936 48.272C218.686 48.5985 220.438 48.923 222.189 49.2453L222.511 47.4991ZM223.987 41.1247C223.004 43.8497 222.472 45.3441 221.512 48.078L223.188 48.6663C224.146 45.9368 224.676 44.4473 225.657 41.7277L223.987 41.1247ZM218.635 40.9847C220.634 41.4235 222.634 41.8598 224.634 42.2938L225.011 40.5586C223.011 40.1249 221.013 39.6889 219.016 39.2505L218.635 40.9847ZM219.319 34.1168C218.869 36.0495 218.417 37.9819 217.962 39.9141L219.69 40.3211C220.145 38.3875 220.598 36.4536 221.048 34.5194L219.319 34.1168Z" fill="#B99410" fill-opacity="0.4" mask="url(#path-7-outside-1_173_114)"/>
</g>
<g id="Vector_4" filter="url(#filter4_d_173_114)">
<path d="M19.7509 51.6863C17.8512 41.6456 15.9303 31.6096 13.9905 21.5759C16.9296 21.0244 19.8735 20.4964 22.8221 19.9944C24.6134 30.1836 26.3858 40.3775 28.1347 50.5738C28.5118 52.7705 29.4688 53.3763 31.3449 53.0675C32.8911 52.813 34.4373 52.5655 35.9858 52.3274C36.3323 54.5477 36.6764 56.768 37.0205 58.9882C34.4208 59.3913 31.8234 59.8132 29.2307 60.2586C22.881 61.3594 20.8092 57.2511 19.7509 51.6887V51.6863Z" fill="url(#paint8_linear_173_114)" shape-rendering="crispEdges"/>
<path d="M19.7509 51.6863C17.8512 41.6456 15.9303 31.6096 13.9905 21.5759C16.9296 21.0244 19.8735 20.4964 22.8221 19.9944C24.6134 30.1836 26.3858 40.3775 28.1347 50.5738C28.5118 52.7705 29.4688 53.3763 31.3449 53.0675C32.8911 52.813 34.4373 52.5655 35.9858 52.3274C36.3323 54.5477 36.6764 56.768 37.0205 58.9882C34.4208 59.3913 31.8234 59.8132 29.2307 60.2586C22.881 61.3594 20.8092 57.2511 19.7509 51.6887V51.6863Z" fill="url(#paint9_linear_173_114)" shape-rendering="crispEdges"/>
<path d="M13.9086 21.1396L13.4699 21.222L13.5547 21.6602C15.4917 31.6797 17.41 41.7015 19.307 51.7279V51.7305L19.3149 51.7716C19.8464 54.5654 20.6462 57.0896 22.1784 58.7713C23.7462 60.492 26.0168 61.2661 29.3059 60.6961C31.8959 60.2511 34.4909 59.8296 37.0885 59.4269L37.5272 59.3589L37.4592 58.9202L37.4592 58.9202C37.1151 56.7 36.7709 54.4795 36.4244 52.259L36.3561 51.8214L35.9184 51.8887C34.368 52.127 32.8203 52.3747 31.2728 52.6295C30.3778 52.7768 29.819 52.684 29.4426 52.404C29.06 52.1195 28.7544 51.5598 28.5722 50.4988C26.8232 40.3018 25.0507 30.1073 23.2593 19.9175L23.1828 19.4827L22.7476 19.5568C19.7964 20.0593 16.8501 20.5877 13.9086 21.1396Z" stroke="#B99410" stroke-opacity="0.4" stroke-width="0.887779" shape-rendering="crispEdges"/>
</g>
<g id="Vector_5" filter="url(#filter5_d_173_114)">
<mask id="path-11-outside-2_173_114" maskUnits="userSpaceOnUse" x="35.5774" y="7.96558" width="46" height="50" fill="black">
<rect fill="white" x="35.5774" y="7.96558" width="46" height="50"/>
<path d="M51.5936 56.2377C50.5872 56.266 49.7198 55.7286 49.2107 54.7646C48.7299 53.8548 48.48 52.8224 48.2373 51.8231C48.209 51.7029 48.1807 51.585 48.1501 51.4672C47.9827 50.7907 47.8484 50.0954 47.7164 49.4237C47.5231 48.4384 47.3251 47.4202 47.0258 46.4586C46.7665 45.6242 46.3658 44.8582 45.8308 44.1794C44.6122 44.0097 43.4361 43.3992 42.333 42.3645C41.2842 41.3793 40.3296 40.0335 39.4929 38.3671C37.8289 35.0508 36.7753 30.681 36.6032 26.3748C36.4147 21.7244 37.2632 17.5172 38.9908 14.5309L38.9979 14.5215C39.3373 13.9912 40.0138 13.5929 40.603 13.5787C40.8505 13.5717 41.0744 13.6306 41.2653 13.7508C41.5222 13.9111 41.8192 14.0973 41.9771 14.3754C42.2317 14.1915 42.5452 14.0831 42.8775 14.0761C43.1627 14.069 43.4432 14.1373 43.6883 14.274L43.7119 14.2882C43.8721 14.4013 44.0112 14.5357 44.1243 14.6842L45.8167 9.97491C46.0288 9.35031 46.4719 8.98262 47.0329 8.96612C47.5113 8.95198 48.0204 9.2136 48.3245 9.63079C48.6026 10.0103 48.6804 10.4722 48.5319 10.8941L46.8089 15.7966L50.3138 12.4073C50.573 12.1433 50.9195 11.9925 51.2896 11.9831C51.6855 11.9713 52.0603 12.1198 52.3455 12.3979L52.3502 12.4026C52.6189 12.6784 52.765 13.0578 52.7532 13.4467C52.7415 13.8215 52.5835 14.1656 52.3101 14.4178C52.065 14.6559 51.8152 14.8963 51.563 15.1414C50.5377 16.1337 49.4841 17.1496 48.5083 18.1607C48.6285 18.2267 48.6969 18.3563 48.7299 18.42C49.6845 20.0911 49.6043 21.312 48.4942 22.0521L48.4706 22.0662C42.201 25.366 41.2135 31.5389 42.2718 35.8215C42.8162 38.0206 43.9287 39.6516 44.9752 39.8284C45.0695 39.5291 45.1756 39.1944 45.2769 38.8597C45.6116 37.7637 45.9463 36.6677 46.281 35.5717C47.8625 30.3934 49.4959 25.0384 51.0798 19.7634C51.2825 19.0893 51.5818 18.658 52.4539 18.5802C54.4078 18.4082 56.4537 18.1772 58.707 17.8708C58.7989 17.859 58.8837 17.8519 58.9639 17.8496C59.5437 17.8331 59.9137 18.0688 60.2461 18.6604C61.8512 21.517 63.3078 24.0414 64.6984 26.3771C65.0897 27.0347 65.2169 27.598 64.6301 28.3593C63.527 29.7995 63.1452 31.4706 63.494 33.3279C63.6543 34.1787 63.5246 34.8033 63.0627 35.4091C62.735 35.8404 62.4357 36.3047 62.1222 36.795C61.9785 37.0212 61.8276 37.2546 61.6697 37.495L61.2195 37.4808L56.9369 30.0304L53.729 40.4907L59.473 39.8355L59.7393 40.2173C59.671 40.3516 59.6168 40.4671 59.5673 40.5685C59.4753 40.7618 59.4023 40.9126 59.308 41.0564C58.8814 41.7069 58.4453 42.3669 58.0211 43.0056C57.1207 44.3632 56.1897 45.7656 55.3129 47.168C54.9452 47.7549 54.4503 48.3559 53.5593 48.3819C53.4792 48.3819 53.3943 48.3819 53.3095 48.3748C53.1374 48.3607 52.9724 48.3559 52.8192 48.3583C51.5182 48.3937 50.8299 49.1007 50.6485 50.5786C50.5872 51.0877 50.4057 51.5732 50.2289 52.0423L50.1747 52.1884C49.8895 52.9568 50.1111 53.5908 50.9172 54.3144C51.1529 54.5242 51.4003 54.6231 51.6785 54.6161C51.9778 54.6067 52.3219 54.4794 52.7603 54.2107C53.0267 54.048 53.2623 53.876 53.4627 53.7016L53.5193 53.6521C53.9718 53.2585 54.2429 53.0204 54.0967 52.3251C53.9388 51.5732 54.1745 50.5102 54.6695 49.7371C56.984 46.1286 59.3905 42.4941 61.7168 38.9775C62.431 37.898 63.1475 36.8162 63.8593 35.7367C63.9277 35.633 64.0031 35.5387 64.0691 35.4538C64.0974 35.4185 64.1257 35.3831 64.1516 35.3478L64.5381 35.3077C64.7974 35.5363 65.0779 35.7508 65.3631 35.9559C64.2718 34.2659 64.0361 32.3803 64.6442 30.2449L65.1368 30.2049C67.0625 34.306 70.1619 36.729 74.6095 37.6105L74.6543 38.1172L72.038 39.1307L80.0282 53.4871L79.8679 53.4918C79.1066 53.579 78.3595 53.6615 77.6241 53.744C75.6018 53.9703 73.6926 54.1848 71.7764 54.4275C71.7198 54.4346 71.6633 54.4393 71.6091 54.4417C70.9963 54.4582 70.7417 54.0975 70.5131 53.6945C70.0087 52.8036 69.4901 51.9008 68.9881 51.0288C68.314 49.8573 67.6187 48.6459 66.947 47.4462C66.7113 47.0219 66.4732 46.904 65.8887 46.9158H65.8392C64.0714 46.9653 62.8882 47.5734 62.002 48.891C61.5071 49.6264 60.8895 50.2863 60.2909 50.9251C60.0363 51.1961 59.7747 51.4766 59.5272 51.7571C59.4706 51.8231 59.4117 51.8867 59.3551 51.9527C58.4996 52.9285 57.6157 53.9373 56.1544 53.9773C55.954 53.9821 55.7466 53.9703 55.5321 53.9373C55.4944 53.9703 55.4402 54.0315 55.4001 54.074C55.32 54.1612 55.2375 54.2531 55.1432 54.3215C54.9334 54.4747 54.7237 54.6397 54.5186 54.7976C54.0048 55.2006 53.4721 55.6178 52.8734 55.903C52.4468 56.108 52.0155 56.2165 51.5936 56.2283V56.2377ZM47.6221 19.1058C47.4713 19.2661 47.3463 19.4028 47.2403 19.523C47.2803 19.4971 47.3228 19.4688 47.3675 19.4382C47.5137 19.3368 47.6268 19.1742 47.7164 19.0021C47.6834 19.0375 47.6527 19.0705 47.6197 19.1058H47.6221Z"/>
</mask>
<path d="M51.5936 56.2377C50.5872 56.266 49.7198 55.7286 49.2107 54.7646C48.7299 53.8548 48.48 52.8224 48.2373 51.8231C48.209 51.7029 48.1807 51.585 48.1501 51.4672C47.9827 50.7907 47.8484 50.0954 47.7164 49.4237C47.5231 48.4384 47.3251 47.4202 47.0258 46.4586C46.7665 45.6242 46.3658 44.8582 45.8308 44.1794C44.6122 44.0097 43.4361 43.3992 42.333 42.3645C41.2842 41.3793 40.3296 40.0335 39.4929 38.3671C37.8289 35.0508 36.7753 30.681 36.6032 26.3748C36.4147 21.7244 37.2632 17.5172 38.9908 14.5309L38.9979 14.5215C39.3373 13.9912 40.0138 13.5929 40.603 13.5787C40.8505 13.5717 41.0744 13.6306 41.2653 13.7508C41.5222 13.9111 41.8192 14.0973 41.9771 14.3754C42.2317 14.1915 42.5452 14.0831 42.8775 14.0761C43.1627 14.069 43.4432 14.1373 43.6883 14.274L43.7119 14.2882C43.8721 14.4013 44.0112 14.5357 44.1243 14.6842L45.8167 9.97491C46.0288 9.35031 46.4719 8.98262 47.0329 8.96612C47.5113 8.95198 48.0204 9.2136 48.3245 9.63079C48.6026 10.0103 48.6804 10.4722 48.5319 10.8941L46.8089 15.7966L50.3138 12.4073C50.573 12.1433 50.9195 11.9925 51.2896 11.9831C51.6855 11.9713 52.0603 12.1198 52.3455 12.3979L52.3502 12.4026C52.6189 12.6784 52.765 13.0578 52.7532 13.4467C52.7415 13.8215 52.5835 14.1656 52.3101 14.4178C52.065 14.6559 51.8152 14.8963 51.563 15.1414C50.5377 16.1337 49.4841 17.1496 48.5083 18.1607C48.6285 18.2267 48.6969 18.3563 48.7299 18.42C49.6845 20.0911 49.6043 21.312 48.4942 22.0521L48.4706 22.0662C42.201 25.366 41.2135 31.5389 42.2718 35.8215C42.8162 38.0206 43.9287 39.6516 44.9752 39.8284C45.0695 39.5291 45.1756 39.1944 45.2769 38.8597C45.6116 37.7637 45.9463 36.6677 46.281 35.5717C47.8625 30.3934 49.4959 25.0384 51.0798 19.7634C51.2825 19.0893 51.5818 18.658 52.4539 18.5802C54.4078 18.4082 56.4537 18.1772 58.707 17.8708C58.7989 17.859 58.8837 17.8519 58.9639 17.8496C59.5437 17.8331 59.9137 18.0688 60.2461 18.6604C61.8512 21.517 63.3078 24.0414 64.6984 26.3771C65.0897 27.0347 65.2169 27.598 64.6301 28.3593C63.527 29.7995 63.1452 31.4706 63.494 33.3279C63.6543 34.1787 63.5246 34.8033 63.0627 35.4091C62.735 35.8404 62.4357 36.3047 62.1222 36.795C61.9785 37.0212 61.8276 37.2546 61.6697 37.495L61.2195 37.4808L56.9369 30.0304L53.729 40.4907L59.473 39.8355L59.7393 40.2173C59.671 40.3516 59.6168 40.4671 59.5673 40.5685C59.4753 40.7618 59.4023 40.9126 59.308 41.0564C58.8814 41.7069 58.4453 42.3669 58.0211 43.0056C57.1207 44.3632 56.1897 45.7656 55.3129 47.168C54.9452 47.7549 54.4503 48.3559 53.5593 48.3819C53.4792 48.3819 53.3943 48.3819 53.3095 48.3748C53.1374 48.3607 52.9724 48.3559 52.8192 48.3583C51.5182 48.3937 50.8299 49.1007 50.6485 50.5786C50.5872 51.0877 50.4057 51.5732 50.2289 52.0423L50.1747 52.1884C49.8895 52.9568 50.1111 53.5908 50.9172 54.3144C51.1529 54.5242 51.4003 54.6231 51.6785 54.6161C51.9778 54.6067 52.3219 54.4794 52.7603 54.2107C53.0267 54.048 53.2623 53.876 53.4627 53.7016L53.5193 53.6521C53.9718 53.2585 54.2429 53.0204 54.0967 52.3251C53.9388 51.5732 54.1745 50.5102 54.6695 49.7371C56.984 46.1286 59.3905 42.4941 61.7168 38.9775C62.431 37.898 63.1475 36.8162 63.8593 35.7367C63.9277 35.633 64.0031 35.5387 64.0691 35.4538C64.0974 35.4185 64.1257 35.3831 64.1516 35.3478L64.5381 35.3077C64.7974 35.5363 65.0779 35.7508 65.3631 35.9559C64.2718 34.2659 64.0361 32.3803 64.6442 30.2449L65.1368 30.2049C67.0625 34.306 70.1619 36.729 74.6095 37.6105L74.6543 38.1172L72.038 39.1307L80.0282 53.4871L79.8679 53.4918C79.1066 53.579 78.3595 53.6615 77.6241 53.744C75.6018 53.9703 73.6926 54.1848 71.7764 54.4275C71.7198 54.4346 71.6633 54.4393 71.6091 54.4417C70.9963 54.4582 70.7417 54.0975 70.5131 53.6945C70.0087 52.8036 69.4901 51.9008 68.9881 51.0288C68.314 49.8573 67.6187 48.6459 66.947 47.4462C66.7113 47.0219 66.4732 46.904 65.8887 46.9158H65.8392C64.0714 46.9653 62.8882 47.5734 62.002 48.891C61.5071 49.6264 60.8895 50.2863 60.2909 50.9251C60.0363 51.1961 59.7747 51.4766 59.5272 51.7571C59.4706 51.8231 59.4117 51.8867 59.3551 51.9527C58.4996 52.9285 57.6157 53.9373 56.1544 53.9773C55.954 53.9821 55.7466 53.9703 55.5321 53.9373C55.4944 53.9703 55.4402 54.0315 55.4001 54.074C55.32 54.1612 55.2375 54.2531 55.1432 54.3215C54.9334 54.4747 54.7237 54.6397 54.5186 54.7976C54.0048 55.2006 53.4721 55.6178 52.8734 55.903C52.4468 56.108 52.0155 56.2165 51.5936 56.2283V56.2377ZM47.6221 19.1058C47.4713 19.2661 47.3463 19.4028 47.2403 19.523C47.2803 19.4971 47.3228 19.4688 47.3675 19.4382C47.5137 19.3368 47.6268 19.1742 47.7164 19.0021C47.6834 19.0375 47.6527 19.0705 47.6197 19.1058H47.6221Z" fill="url(#paint10_linear_173_114)" shape-rendering="crispEdges"/>
<path d="M51.5936 56.2377C50.5872 56.266 49.7198 55.7286 49.2107 54.7646C48.7299 53.8548 48.48 52.8224 48.2373 51.8231C48.209 51.7029 48.1807 51.585 48.1501 51.4672C47.9827 50.7907 47.8484 50.0954 47.7164 49.4237C47.5231 48.4384 47.3251 47.4202 47.0258 46.4586C46.7665 45.6242 46.3658 44.8582 45.8308 44.1794C44.6122 44.0097 43.4361 43.3992 42.333 42.3645C41.2842 41.3793 40.3296 40.0335 39.4929 38.3671C37.8289 35.0508 36.7753 30.681 36.6032 26.3748C36.4147 21.7244 37.2632 17.5172 38.9908 14.5309L38.9979 14.5215C39.3373 13.9912 40.0138 13.5929 40.603 13.5787C40.8505 13.5717 41.0744 13.6306 41.2653 13.7508C41.5222 13.9111 41.8192 14.0973 41.9771 14.3754C42.2317 14.1915 42.5452 14.0831 42.8775 14.0761C43.1627 14.069 43.4432 14.1373 43.6883 14.274L43.7119 14.2882C43.8721 14.4013 44.0112 14.5357 44.1243 14.6842L45.8167 9.97491C46.0288 9.35031 46.4719 8.98262 47.0329 8.96612C47.5113 8.95198 48.0204 9.2136 48.3245 9.63079C48.6026 10.0103 48.6804 10.4722 48.5319 10.8941L46.8089 15.7966L50.3138 12.4073C50.573 12.1433 50.9195 11.9925 51.2896 11.9831C51.6855 11.9713 52.0603 12.1198 52.3455 12.3979L52.3502 12.4026C52.6189 12.6784 52.765 13.0578 52.7532 13.4467C52.7415 13.8215 52.5835 14.1656 52.3101 14.4178C52.065 14.6559 51.8152 14.8963 51.563 15.1414C50.5377 16.1337 49.4841 17.1496 48.5083 18.1607C48.6285 18.2267 48.6969 18.3563 48.7299 18.42C49.6845 20.0911 49.6043 21.312 48.4942 22.0521L48.4706 22.0662C42.201 25.366 41.2135 31.5389 42.2718 35.8215C42.8162 38.0206 43.9287 39.6516 44.9752 39.8284C45.0695 39.5291 45.1756 39.1944 45.2769 38.8597C45.6116 37.7637 45.9463 36.6677 46.281 35.5717C47.8625 30.3934 49.4959 25.0384 51.0798 19.7634C51.2825 19.0893 51.5818 18.658 52.4539 18.5802C54.4078 18.4082 56.4537 18.1772 58.707 17.8708C58.7989 17.859 58.8837 17.8519 58.9639 17.8496C59.5437 17.8331 59.9137 18.0688 60.2461 18.6604C61.8512 21.517 63.3078 24.0414 64.6984 26.3771C65.0897 27.0347 65.2169 27.598 64.6301 28.3593C63.527 29.7995 63.1452 31.4706 63.494 33.3279C63.6543 34.1787 63.5246 34.8033 63.0627 35.4091C62.735 35.8404 62.4357 36.3047 62.1222 36.795C61.9785 37.0212 61.8276 37.2546 61.6697 37.495L61.2195 37.4808L56.9369 30.0304L53.729 40.4907L59.473 39.8355L59.7393 40.2173C59.671 40.3516 59.6168 40.4671 59.5673 40.5685C59.4753 40.7618 59.4023 40.9126 59.308 41.0564C58.8814 41.7069 58.4453 42.3669 58.0211 43.0056C57.1207 44.3632 56.1897 45.7656 55.3129 47.168C54.9452 47.7549 54.4503 48.3559 53.5593 48.3819C53.4792 48.3819 53.3943 48.3819 53.3095 48.3748C53.1374 48.3607 52.9724 48.3559 52.8192 48.3583C51.5182 48.3937 50.8299 49.1007 50.6485 50.5786C50.5872 51.0877 50.4057 51.5732 50.2289 52.0423L50.1747 52.1884C49.8895 52.9568 50.1111 53.5908 50.9172 54.3144C51.1529 54.5242 51.4003 54.6231 51.6785 54.6161C51.9778 54.6067 52.3219 54.4794 52.7603 54.2107C53.0267 54.048 53.2623 53.876 53.4627 53.7016L53.5193 53.6521C53.9718 53.2585 54.2429 53.0204 54.0967 52.3251C53.9388 51.5732 54.1745 50.5102 54.6695 49.7371C56.984 46.1286 59.3905 42.4941 61.7168 38.9775C62.431 37.898 63.1475 36.8162 63.8593 35.7367C63.9277 35.633 64.0031 35.5387 64.0691 35.4538C64.0974 35.4185 64.1257 35.3831 64.1516 35.3478L64.5381 35.3077C64.7974 35.5363 65.0779 35.7508 65.3631 35.9559C64.2718 34.2659 64.0361 32.3803 64.6442 30.2449L65.1368 30.2049C67.0625 34.306 70.1619 36.729 74.6095 37.6105L74.6543 38.1172L72.038 39.1307L80.0282 53.4871L79.8679 53.4918C79.1066 53.579 78.3595 53.6615 77.6241 53.744C75.6018 53.9703 73.6926 54.1848 71.7764 54.4275C71.7198 54.4346 71.6633 54.4393 71.6091 54.4417C70.9963 54.4582 70.7417 54.0975 70.5131 53.6945C70.0087 52.8036 69.4901 51.9008 68.9881 51.0288C68.314 49.8573 67.6187 48.6459 66.947 47.4462C66.7113 47.0219 66.4732 46.904 65.8887 46.9158H65.8392C64.0714 46.9653 62.8882 47.5734 62.002 48.891C61.5071 49.6264 60.8895 50.2863 60.2909 50.9251C60.0363 51.1961 59.7747 51.4766 59.5272 51.7571C59.4706 51.8231 59.4117 51.8867 59.3551 51.9527C58.4996 52.9285 57.6157 53.9373 56.1544 53.9773C55.954 53.9821 55.7466 53.9703 55.5321 53.9373C55.4944 53.9703 55.4402 54.0315 55.4001 54.074C55.32 54.1612 55.2375 54.2531 55.1432 54.3215C54.9334 54.4747 54.7237 54.6397 54.5186 54.7976C54.0048 55.2006 53.4721 55.6178 52.8734 55.903C52.4468 56.108 52.0155 56.2165 51.5936 56.2283V56.2377ZM47.6221 19.1058C47.4713 19.2661 47.3463 19.4028 47.2403 19.523C47.2803 19.4971 47.3228 19.4688 47.3675 19.4382C47.5137 19.3368 47.6268 19.1742 47.7164 19.0021C47.6834 19.0375 47.6527 19.0705 47.6197 19.1058H47.6221Z" fill="url(#paint11_linear_173_114)" shape-rendering="crispEdges"/>
<path d="M51.5936 56.2377C50.5872 56.266 49.7198 55.7286 49.2107 54.7646C48.7299 53.8548 48.48 52.8224 48.2373 51.8231C48.209 51.7029 48.1807 51.585 48.1501 51.4672C47.9827 50.7907 47.8484 50.0954 47.7164 49.4237C47.5231 48.4384 47.3251 47.4202 47.0258 46.4586C46.7665 45.6242 46.3658 44.8582 45.8308 44.1794C44.6122 44.0097 43.4361 43.3992 42.333 42.3645C41.2842 41.3793 40.3296 40.0335 39.4929 38.3671C37.8289 35.0508 36.7753 30.681 36.6032 26.3748C36.4147 21.7244 37.2632 17.5172 38.9908 14.5309L38.9979 14.5215C39.3373 13.9912 40.0138 13.5929 40.603 13.5787C40.8505 13.5717 41.0744 13.6306 41.2653 13.7508C41.5222 13.9111 41.8192 14.0973 41.9771 14.3754C42.2317 14.1915 42.5452 14.0831 42.8775 14.0761C43.1627 14.069 43.4432 14.1373 43.6883 14.274L43.7119 14.2882C43.8721 14.4013 44.0112 14.5357 44.1243 14.6842L45.8167 9.97491C46.0288 9.35031 46.4719 8.98262 47.0329 8.96612C47.5113 8.95198 48.0204 9.2136 48.3245 9.63079C48.6026 10.0103 48.6804 10.4722 48.5319 10.8941L46.8089 15.7966L50.3138 12.4073C50.573 12.1433 50.9195 11.9925 51.2896 11.9831C51.6855 11.9713 52.0603 12.1198 52.3455 12.3979L52.3502 12.4026C52.6189 12.6784 52.765 13.0578 52.7532 13.4467C52.7415 13.8215 52.5835 14.1656 52.3101 14.4178C52.065 14.6559 51.8152 14.8963 51.563 15.1414C50.5377 16.1337 49.4841 17.1496 48.5083 18.1607C48.6285 18.2267 48.6969 18.3563 48.7299 18.42C49.6845 20.0911 49.6043 21.312 48.4942 22.0521L48.4706 22.0662C42.201 25.366 41.2135 31.5389 42.2718 35.8215C42.8162 38.0206 43.9287 39.6516 44.9752 39.8284C45.0695 39.5291 45.1756 39.1944 45.2769 38.8597C45.6116 37.7637 45.9463 36.6677 46.281 35.5717C47.8625 30.3934 49.4959 25.0384 51.0798 19.7634C51.2825 19.0893 51.5818 18.658 52.4539 18.5802C54.4078 18.4082 56.4537 18.1772 58.707 17.8708C58.7989 17.859 58.8837 17.8519 58.9639 17.8496C59.5437 17.8331 59.9137 18.0688 60.2461 18.6604C61.8512 21.517 63.3078 24.0414 64.6984 26.3771C65.0897 27.0347 65.2169 27.598 64.6301 28.3593C63.527 29.7995 63.1452 31.4706 63.494 33.3279C63.6543 34.1787 63.5246 34.8033 63.0627 35.4091C62.735 35.8404 62.4357 36.3047 62.1222 36.795C61.9785 37.0212 61.8276 37.2546 61.6697 37.495L61.2195 37.4808L56.9369 30.0304L53.729 40.4907L59.473 39.8355L59.7393 40.2173C59.671 40.3516 59.6168 40.4671 59.5673 40.5685C59.4753 40.7618 59.4023 40.9126 59.308 41.0564C58.8814 41.7069 58.4453 42.3669 58.0211 43.0056C57.1207 44.3632 56.1897 45.7656 55.3129 47.168C54.9452 47.7549 54.4503 48.3559 53.5593 48.3819C53.4792 48.3819 53.3943 48.3819 53.3095 48.3748C53.1374 48.3607 52.9724 48.3559 52.8192 48.3583C51.5182 48.3937 50.8299 49.1007 50.6485 50.5786C50.5872 51.0877 50.4057 51.5732 50.2289 52.0423L50.1747 52.1884C49.8895 52.9568 50.1111 53.5908 50.9172 54.3144C51.1529 54.5242 51.4003 54.6231 51.6785 54.6161C51.9778 54.6067 52.3219 54.4794 52.7603 54.2107C53.0267 54.048 53.2623 53.876 53.4627 53.7016L53.5193 53.6521C53.9718 53.2585 54.2429 53.0204 54.0967 52.3251C53.9388 51.5732 54.1745 50.5102 54.6695 49.7371C56.984 46.1286 59.3905 42.4941 61.7168 38.9775C62.431 37.898 63.1475 36.8162 63.8593 35.7367C63.9277 35.633 64.0031 35.5387 64.0691 35.4538C64.0974 35.4185 64.1257 35.3831 64.1516 35.3478L64.5381 35.3077C64.7974 35.5363 65.0779 35.7508 65.3631 35.9559C64.2718 34.2659 64.0361 32.3803 64.6442 30.2449L65.1368 30.2049C67.0625 34.306 70.1619 36.729 74.6095 37.6105L74.6543 38.1172L72.038 39.1307L80.0282 53.4871L79.8679 53.4918C79.1066 53.579 78.3595 53.6615 77.6241 53.744C75.6018 53.9703 73.6926 54.1848 71.7764 54.4275C71.7198 54.4346 71.6633 54.4393 71.6091 54.4417C70.9963 54.4582 70.7417 54.0975 70.5131 53.6945C70.0087 52.8036 69.4901 51.9008 68.9881 51.0288C68.314 49.8573 67.6187 48.6459 66.947 47.4462C66.7113 47.0219 66.4732 46.904 65.8887 46.9158H65.8392C64.0714 46.9653 62.8882 47.5734 62.002 48.891C61.5071 49.6264 60.8895 50.2863 60.2909 50.9251C60.0363 51.1961 59.7747 51.4766 59.5272 51.7571C59.4706 51.8231 59.4117 51.8867 59.3551 51.9527C58.4996 52.9285 57.6157 53.9373 56.1544 53.9773C55.954 53.9821 55.7466 53.9703 55.5321 53.9373C55.4944 53.9703 55.4402 54.0315 55.4001 54.074C55.32 54.1612 55.2375 54.2531 55.1432 54.3215C54.9334 54.4747 54.7237 54.6397 54.5186 54.7976C54.0048 55.2006 53.4721 55.6178 52.8734 55.903C52.4468 56.108 52.0155 56.2165 51.5936 56.2283V56.2377ZM47.6221 19.1058C47.4713 19.2661 47.3463 19.4028 47.2403 19.523C47.2803 19.4971 47.3228 19.4688 47.3675 19.4382C47.5137 19.3368 47.6268 19.1742 47.7164 19.0021C47.6834 19.0375 47.6527 19.0705 47.6197 19.1058H47.6221Z" stroke="#B99410" stroke-opacity="0.4" stroke-width="1.77556" shape-rendering="crispEdges" mask="url(#path-11-outside-2_173_114)"/>
</g>
<path id="Vector_6" d="M61.0922 45.016C61.0874 44.9594 61.0757 44.8911 61.0615 44.818C61.0214 44.6082 60.9767 44.3725 61.1063 44.1793C61.5706 43.491 62.0538 42.8311 62.5653 42.131C62.735 41.8977 62.907 41.662 63.0814 41.4239L63.435 41.3556L64.4226 41.9684L64.4838 42.3667C64.2859 42.5954 64.0926 42.8216 63.8993 43.0455C63.2959 43.7479 62.7255 44.4126 62.1292 45.0655C61.9831 45.2258 61.7639 45.2375 61.5706 45.247C61.507 45.2493 61.4457 45.254 61.3986 45.2611L61.0898 45.0183L61.0922 45.016Z" fill="black"/>
<path id="Vector_7" d="M61.9357 44.8839C61.8297 45.0018 61.5515 44.9641 61.3536 44.9971C61.3394 44.7708 61.2239 44.4762 61.3229 44.3277C61.9381 43.4132 62.6028 42.5293 63.2934 41.5795C63.621 41.7822 63.8944 41.9519 64.2809 42.1923C63.4654 43.1351 62.7159 44.026 61.9334 44.8839H61.9357Z" fill="black"/>
<path id="Vector_8" d="M38.7196 58.2174C40.1338 53.5718 41.5127 49.0511 42.9198 44.4268C44.268 45.4945 44.9232 46.8521 45.2603 48.337C45.6704 50.1401 45.8825 51.9879 46.295 53.7887C46.4717 54.5547 46.8866 55.2854 47.2873 55.9783C47.7964 56.8551 47.695 57.1898 46.7239 57.3029C44.1077 57.6093 41.4914 57.9016 38.7173 58.2174H38.7196Z" fill="black"/>
<path id="Vector_9" d="M77.1908 32.5689C77.3487 35.831 76.7571 36.3495 73.7567 35.5434C70.4404 34.6525 68.008 32.6019 66.8436 29.2527C66.5113 28.2957 66.7894 27.7088 67.7181 27.2681C71.8098 25.3259 76.6817 28.0341 77.1908 32.5689Z" fill="black"/>
<g id="Vector_10" filter="url(#filter6_d_173_114)">
<path d="M77.4331 27.5177C80.113 26.2214 82.7952 24.9227 85.5105 23.6099C86.0101 24.456 85.963 24.9274 85.0674 25.2456C82.7999 26.0493 80.5585 26.9167 78.3005 27.7487C78.0695 27.8336 77.8126 27.8501 77.5674 27.8996C77.5227 27.7723 77.4779 27.6474 77.4331 27.5201V27.5177Z" fill="url(#paint12_linear_173_114)" shape-rendering="crispEdges"/>
<path d="M77.4331 27.5177C80.113 26.2214 82.7952 24.9227 85.5105 23.6099C86.0101 24.456 85.963 24.9274 85.0674 25.2456C82.7999 26.0493 80.5585 26.9167 78.3005 27.7487C78.0695 27.8336 77.8126 27.8501 77.5674 27.8996C77.5227 27.7723 77.4779 27.6474 77.4331 27.5201V27.5177Z" fill="url(#paint13_linear_173_114)" shape-rendering="crispEdges"/>
<path d="M77.2398 27.1181L76.9892 27.2394V27.5177V27.5201V27.5959L77.0144 27.6674C77.037 27.7316 77.0595 27.7952 77.0818 27.858L77.082 27.8584C77.1044 27.9215 77.1266 27.984 77.1487 28.0469L77.2769 28.4111L77.6553 28.3347C77.7265 28.3203 77.79 28.3105 77.8629 28.2992C77.9081 28.2922 77.9568 28.2846 78.0133 28.2751C78.145 28.2528 78.2991 28.2221 78.4535 28.1654L78.4539 28.1652C79.2756 27.8625 80.0921 27.5562 80.907 27.2505C82.3415 26.7123 83.7712 26.176 85.2157 25.664L85.216 25.6639C85.7007 25.4917 86.1296 25.2203 86.2445 24.7263C86.3489 24.2776 86.1445 23.8105 85.8927 23.3842L85.685 23.0324L85.3172 23.2102C83.6878 23.9981 82.0701 24.7809 80.4577 25.5611C79.3834 26.081 78.3113 26.5998 77.2398 27.1181Z" stroke="#B99410" stroke-opacity="0.4" stroke-width="0.887779" shape-rendering="crispEdges"/>
</g>
<g id="Vector_11" filter="url(#filter7_d_173_114)">
<path d="M78.7766 34.4802C80.6975 36.2621 82.8211 38.077 84.8151 39.9272C84.4215 40.3067 84.1128 40.6037 83.6602 41.0373C81.9538 38.9608 80.285 36.9338 78.6187 34.9068C78.7389 34.7748 78.6564 34.6122 78.7766 34.4802Z" fill="url(#paint14_linear_173_114)" shape-rendering="crispEdges"/>
<path d="M78.7766 34.4802C80.6975 36.2621 82.8211 38.077 84.8151 39.9272C84.4215 40.3067 84.1128 40.6037 83.6602 41.0373C81.9538 38.9608 80.285 36.9338 78.6187 34.9068C78.7389 34.7748 78.6564 34.6122 78.7766 34.4802Z" fill="url(#paint15_linear_173_114)" shape-rendering="crispEdges"/>
<path d="M79.0784 34.1548L78.75 33.8501L78.4484 34.1813C78.2917 34.3534 78.2678 34.5508 78.2587 34.6258C78.2582 34.63 78.2577 34.6338 78.2573 34.6372C78.2569 34.6402 78.2566 34.643 78.2562 34.6456L78.0318 34.892L78.2758 35.1887C79.0085 36.08 79.7415 36.9711 80.4778 37.8662C81.4166 39.0074 82.3609 40.1554 83.3173 41.3192L83.6215 41.6893L83.9674 41.3578C84.4202 40.9238 84.7293 40.6265 85.1232 40.2468L85.4611 39.921L85.1171 39.6018C84.1161 38.673 83.0833 37.7537 82.0635 36.8464L82.0309 36.8174C81.021 35.919 80.0247 35.0326 79.0784 34.1548Z" stroke="#B99410" stroke-opacity="0.4" stroke-width="0.887779" shape-rendering="crispEdges"/>
</g>
<g id="Vector_12" filter="url(#filter8_d_173_114)">
<path d="M74.4019 26.0329C75.7783 22.184 77.1548 18.3327 78.6279 14.2103C79.2761 14.6346 79.7475 14.9433 80.3792 15.3558C78.5643 19.0162 76.7683 22.6436 74.9699 26.2686C74.7813 26.1908 74.5904 26.1107 74.4019 26.0329Z" fill="url(#paint16_linear_173_114)" shape-rendering="crispEdges"/>
<path d="M74.4019 26.0329C75.7783 22.184 77.1548 18.3327 78.6279 14.2103C79.2761 14.6346 79.7475 14.9433 80.3792 15.3558C78.5643 19.0162 76.7683 22.6436 74.9699 26.2686C74.7813 26.1908 74.5904 26.1107 74.4019 26.0329Z" fill="url(#paint17_linear_173_114)" shape-rendering="crispEdges"/>
<path d="M73.9839 25.8835L73.8414 26.2819L74.2326 26.4433C74.326 26.4818 74.4201 26.521 74.515 26.5604L74.5153 26.5606L74.5159 26.5608C74.6105 26.6002 74.7058 26.6399 74.8006 26.679L75.1835 26.8369L75.3675 26.4659C76.4191 24.3462 77.47 22.2255 78.5242 20.098C79.2729 18.5872 80.0233 17.0728 80.7768 15.553L80.952 15.1997L80.6219 14.9841C80.0881 14.6356 79.6689 14.3612 79.1603 14.0283C79.0673 13.9674 78.9713 13.9046 78.871 13.8389L78.3995 13.5303L78.2099 14.061C76.7368 18.1833 75.3603 22.0346 73.9839 25.8835Z" stroke="#B99410" stroke-opacity="0.4" stroke-width="0.887779" shape-rendering="crispEdges"/>
</g>
<g id="Vector_13" filter="url(#filter9_d_173_114)">
<path d="M66.339 24.6398C66.1905 24.3711 66.009 24.1519 65.9383 23.9021C65.375 21.8892 64.8116 19.8764 64.3072 17.8494C64.2483 17.6137 64.4934 17.1187 64.7009 17.0504C64.9177 16.9773 65.481 17.2342 65.5117 17.4133C65.9147 19.7326 66.2518 22.066 66.5959 24.3947C66.6006 24.43 66.5063 24.4819 66.339 24.6398Z" fill="url(#paint18_linear_173_114)" shape-rendering="crispEdges"/>
<path d="M66.339 24.6398C66.1905 24.3711 66.009 24.1519 65.9383 23.9021C65.375 21.8892 64.8116 19.8764 64.3072 17.8494C64.2483 17.6137 64.4934 17.1187 64.7009 17.0504C64.9177 16.9773 65.481 17.2342 65.5117 17.4133C65.9147 19.7326 66.2518 22.066 66.5959 24.3947C66.6006 24.43 66.5063 24.4819 66.339 24.6398Z" fill="url(#paint19_linear_173_114)" shape-rendering="crispEdges"/>
<path d="M65.9491 17.3377C65.9283 17.2171 65.8708 17.1265 65.8268 17.0701C65.7802 17.0105 65.7271 16.9618 65.6789 16.9234C65.5824 16.8466 65.4684 16.7822 65.3586 16.7326C65.2479 16.6827 65.1238 16.64 65.001 16.6156C64.8931 16.5942 64.7252 16.5742 64.5605 16.6292C64.3967 16.6836 64.2787 16.7979 64.2067 16.8818C64.1267 16.9751 64.059 17.0835 64.0061 17.1906C63.953 17.2982 63.9082 17.4178 63.8814 17.5383C63.8564 17.6507 63.8382 17.8029 63.8765 17.9566C64.3824 19.9898 64.9472 22.0079 65.51 24.0187L65.5108 24.0217L65.5112 24.023C65.5634 24.2075 65.6523 24.3665 65.7302 24.4946C65.7634 24.5491 65.7928 24.5956 65.8203 24.639C65.8664 24.7117 65.907 24.7758 65.9505 24.8545L66.2273 25.3555L66.6436 24.9627C66.7008 24.9087 66.7448 24.8719 66.7862 24.8374C66.7971 24.8283 66.8078 24.8193 66.8186 24.8102L66.8197 24.8093C66.8394 24.7926 66.8799 24.7584 66.9149 24.7184C66.9153 24.718 66.9158 24.7175 66.9163 24.7169C66.9389 24.6912 67.0643 24.5492 67.0359 24.336L67.0359 24.336L67.035 24.3298C66.9998 24.0915 66.9646 23.853 66.9294 23.6143C66.6213 21.5243 66.3119 19.4254 65.9491 17.3377ZM65.9491 17.3377C65.9491 17.3379 65.9491 17.3382 65.9492 17.3385L65.5117 17.4133M65.9491 17.3377C65.949 17.3376 65.949 17.3374 65.949 17.3373L65.5117 17.4133M65.5117 17.4133C65.8734 19.4952 66.182 21.5884 66.4903 23.6794C66.5133 23.8349 66.5362 23.9904 66.5591 24.1459M65.5117 17.4133C65.481 17.2342 64.9177 16.9773 64.7009 17.0504C64.4934 17.1187 64.2483 17.6137 64.3072 17.8494L66.5591 24.1459M66.5591 24.1459C66.6036 24.2165 66.6551 24.2985 66.7015 24.3791C66.7018 24.3796 66.702 24.38 66.7023 24.3805C66.7109 24.3955 66.7193 24.4104 66.7275 24.4251L66.339 24.6398L66.1674 24.458L66.1568 24.4596C66.156 24.4545 66.1552 24.4494 66.1545 24.4443L66.0343 24.317C66.0585 24.2942 66.0816 24.2731 66.1033 24.2537C66.0331 24.1376 65.9726 24.0235 65.9383 23.9021L66.5591 24.1459ZM66.1559 24.4534C66.1555 24.4504 66.1551 24.4476 66.1548 24.4447L66.1622 24.4525L66.1559 24.4534Z" stroke="#B99410" stroke-opacity="0.4" stroke-width="0.887779" shape-rendering="crispEdges"/>
</g>
<g id="Vector_14" filter="url(#filter10_d_173_114)">
<path d="M70.6334 19.3131C71.925 19.3367 72.0405 19.4687 71.7671 20.4845C71.4701 21.5852 71.1826 22.6907 70.8738 23.7867C70.7795 24.1213 70.6287 24.4395 70.5038 24.7648C70.3647 24.7412 70.2233 24.7177 70.0842 24.6941C70.2681 22.8981 70.4496 21.1021 70.6334 19.3131Z" fill="url(#paint20_linear_173_114)" shape-rendering="crispEdges"/>
<path d="M70.6334 19.3131C71.925 19.3367 72.0405 19.4687 71.7671 20.4845C71.4701 21.5852 71.1826 22.6907 70.8738 23.7867C70.7795 24.1213 70.6287 24.4395 70.5038 24.7648C70.3647 24.7412 70.2233 24.7177 70.0842 24.6941C70.2681 22.8981 70.4496 21.1021 70.6334 19.3131Z" fill="url(#paint21_linear_173_114)" shape-rendering="crispEdges"/>
<path d="M71.3011 23.907C71.5148 23.1483 71.719 22.3831 71.9221 21.6216C72.0133 21.2801 72.1042 20.9393 72.1957 20.6002L72.1957 20.5999C72.264 20.3464 72.3204 20.106 72.3303 19.8974C72.3407 19.681 72.3044 19.4249 72.1076 19.2196C71.928 19.0321 71.6821 18.9615 71.4673 18.9255C71.2435 18.8879 70.9648 18.8752 70.6415 18.8693L70.2336 18.8619L70.1918 19.2677C70.0877 20.2807 69.9843 21.2965 69.8809 22.3131C69.8016 23.0916 69.7223 23.8705 69.6426 24.6489L69.6003 25.0623L70.0101 25.1317L70.2204 25.1672L70.4296 25.2024L70.7879 25.2632L70.9182 24.9239C70.9493 24.8427 70.986 24.7536 71.0248 24.6593C71.1204 24.4268 71.229 24.1627 71.3011 23.907ZM71.3011 23.907L70.8738 23.7867M71.3011 23.907L70.8738 23.7867M70.8738 23.7867C70.809 24.0167 70.7175 24.2389 70.6261 24.461C70.5937 24.5396 70.5613 24.6182 70.5301 24.6972C70.5287 24.7112 70.5272 24.7253 70.5258 24.7393L70.5141 24.7381C70.5106 24.747 70.5072 24.7559 70.5038 24.7648C70.4342 24.753 70.364 24.7412 70.2939 24.7294C70.2238 24.7176 70.1537 24.7059 70.0842 24.6941C70.0872 24.6651 70.0902 24.6361 70.0931 24.6071L70.0894 24.6057C70.0912 24.6011 70.0929 24.5965 70.0947 24.5919C70.1709 23.8469 70.2467 23.102 70.3225 22.3576C70.426 21.3413 70.5293 20.3261 70.6334 19.3131C71.925 19.3367 72.0405 19.4687 71.7671 20.4845C71.6749 20.8263 71.5836 21.1685 71.4923 21.5107C71.2895 22.2708 71.0867 23.0309 70.8738 23.7867Z" stroke="#B99410" stroke-opacity="0.4" stroke-width="0.887779" shape-rendering="crispEdges"/>
</g>
<g id="Vector_15" filter="url(#filter11_d_173_114)">
<path d="M83.1866 34.0325C81.7559 33.3984 80.3394 32.7715 78.9229 32.1445C78.9488 32.0385 78.9771 31.93 79.003 31.824C79.1986 31.8028 79.4084 31.7226 79.5875 31.7674C80.6057 32.0125 81.6122 32.3166 82.6327 32.5405C83.5331 32.7385 83.5944 33.2264 83.1843 34.0301L83.1866 34.0325Z" fill="url(#paint22_linear_173_114)" shape-rendering="crispEdges"/>
<path d="M83.1866 34.0325C81.7559 33.3984 80.3394 32.7715 78.9229 32.1445C78.9488 32.0385 78.9771 31.93 79.003 31.824C79.1986 31.8028 79.4084 31.7226 79.5875 31.7674C80.6057 32.0125 81.6122 32.3166 82.6327 32.5405C83.5331 32.7385 83.5944 33.2264 83.1843 34.0301L83.1866 34.0325Z" fill="url(#paint23_linear_173_114)" shape-rendering="crispEdges"/>
<path d="M83.0068 34.4383L83.2605 34.069L83.5797 34.2319C83.7882 33.8232 83.9571 33.3566 83.8239 32.9268C83.6747 32.4451 83.2267 32.2166 82.7281 32.107L82.7279 32.1069C82.1412 31.9782 81.5843 31.8294 81.0166 31.6778C80.5874 31.5631 80.152 31.4468 79.6929 31.3362C79.5103 31.2911 79.3375 31.3143 79.2262 31.3335C79.16 31.3449 79.1159 31.354 79.08 31.3615C79.0346 31.3709 79.0023 31.3776 78.9551 31.3827L78.6457 31.4162L78.5718 31.7186C78.5593 31.7696 78.5462 31.8216 78.5326 31.8755L78.5324 31.8763C78.5189 31.9294 78.505 31.9844 78.4917 32.0391L78.4034 32.4001L78.7432 32.5504C80.1598 33.1774 81.5762 33.8043 83.0068 34.4383Z" stroke="#B99410" stroke-opacity="0.4" stroke-width="0.887779" shape-rendering="crispEdges"/>
</g>
<g id="Vector_16" filter="url(#filter12_d_173_114)">
<path d="M38.406 58.974C39.8202 54.3284 41.4654 49.2091 42.8725 44.587C44.2207 45.6547 44.8759 47.0124 45.213 48.4973C45.6231 50.3004 45.8352 52.1482 46.2477 53.949C46.4244 54.715 46.8393 55.4456 47.24 56.1386C47.7491 57.0154 47.7703 57.6636 46.7992 57.7767C44.183 58.0831 41.1802 58.6606 38.406 58.9764V58.974Z" fill="url(#paint24_linear_173_114)" shape-rendering="crispEdges"/>
<path d="M38.406 58.974C39.8202 54.3284 41.4654 49.2091 42.8725 44.587C44.2207 45.6547 44.8759 47.0124 45.213 48.4973C45.6231 50.3004 45.8352 52.1482 46.2477 53.949C46.4244 54.715 46.8393 55.4456 47.24 56.1386C47.7491 57.0154 47.7703 57.6636 46.7992 57.7767C44.183 58.0831 41.1802 58.6606 38.406 58.9764V58.974Z" fill="url(#paint25_linear_173_114)" shape-rendering="crispEdges"/>
<path d="M37.9814 58.8448L37.9621 58.908V58.974V58.9764V59.4737L38.4562 59.4174C39.8538 59.2583 41.3069 59.0335 42.7302 58.8116L42.8754 58.7889C44.2517 58.5743 45.5967 58.3644 46.8506 58.2176C47.1359 58.1844 47.3979 58.107 47.6072 57.9576C47.8291 57.7993 47.9645 57.5787 48.0113 57.3241C48.0552 57.0846 48.0165 56.8402 47.9459 56.6154C47.8744 56.3878 47.761 56.1519 47.6238 55.9157C47.2181 55.214 46.8398 54.5401 46.6803 53.8498C46.4773 52.9635 46.3232 52.0636 46.167 51.1493L46.1629 51.1255C46.0088 50.2229 45.8522 49.3063 45.6458 48.399C45.293 46.8447 44.5964 45.386 43.1481 44.2391L42.6375 43.8347L42.4478 44.4578C41.7461 46.7627 40.9851 49.1917 40.2223 51.6261L40.2183 51.639C39.4545 54.0769 38.6891 56.5199 37.9814 58.8448Z" stroke="#B99410" stroke-opacity="0.4" stroke-width="0.887779" shape-rendering="crispEdges"/>
</g>
<g id="Vector_17" filter="url(#filter13_d_173_114)">
<path d="M77.1385 32.734C77.2964 35.996 76.7048 36.5146 73.7044 35.7085C70.3881 34.8175 67.9557 32.767 66.7914 29.4177C66.4591 28.4608 66.7372 27.8739 67.6658 27.4331C71.7575 25.491 76.6294 28.1991 77.1385 32.734Z" fill="url(#paint26_linear_173_114)" shape-rendering="crispEdges"/>
<path d="M77.1385 32.734C77.2964 35.996 76.7048 36.5146 73.7044 35.7085C70.3881 34.8175 67.9557 32.767 66.7914 29.4177C66.4591 28.4608 66.7372 27.8739 67.6658 27.4331C71.7575 25.491 76.6294 28.1991 77.1385 32.734Z" fill="url(#paint27_linear_173_114)" shape-rendering="crispEdges"/>
<path d="M77.5819 32.7125L77.5812 32.6984L77.5796 32.6844C77.0367 27.8481 71.8437 24.9587 67.4755 27.0321C66.966 27.2739 66.5562 27.5916 66.3507 28.0503C66.1427 28.5143 66.1859 29.0272 66.3721 29.5633L66.3721 29.5635C67.5892 33.0644 70.1446 35.2117 73.5892 36.1372C74.3466 36.3406 74.9873 36.4709 75.5161 36.4862C76.0478 36.5016 76.5274 36.4025 76.8968 36.082C77.2615 35.7656 77.4411 35.2999 77.5287 34.7592C77.6165 34.2169 77.6217 33.5348 77.5819 32.7125Z" stroke="#B99410" stroke-opacity="0.4" stroke-width="0.887779" shape-rendering="crispEdges"/>
</g>
<g id="Vector_18" filter="url(#filter14_d_173_114)">
<path d="M92.838 17.4016C89.5972 17.6656 86.3728 18.0804 83.1744 18.6414C82.6205 16.2349 82.0501 13.8308 81.4656 11.4314C92.8474 9.38554 104.545 9.09327 116.144 10.6112C115.979 13.0766 115.797 15.5396 115.599 18.0003C112.34 17.5595 109.071 17.2743 105.806 17.1376C105.945 28.9131 105.714 40.6768 105.118 52.4098C102.216 52.259 99.322 52.2849 96.4512 52.49C95.6145 40.7734 94.4125 29.0687 92.8404 17.3993L92.838 17.4016Z" fill="url(#paint28_linear_173_114)" shape-rendering="crispEdges"/>
<path d="M92.838 17.4016C89.5972 17.6656 86.3728 18.0804 83.1744 18.6414C82.6205 16.2349 82.0501 13.8308 81.4656 11.4314C92.8474 9.38554 104.545 9.09327 116.144 10.6112C115.979 13.0766 115.797 15.5396 115.599 18.0003C112.34 17.5595 109.071 17.2743 105.806 17.1376C105.945 28.9131 105.714 40.6768 105.118 52.4098C102.216 52.259 99.322 52.2849 96.4512 52.49C95.6145 40.7734 94.4125 29.0687 92.8404 17.3993L92.838 17.4016Z" fill="url(#paint29_linear_173_114)" shape-rendering="crispEdges"/>
<path d="M83.2511 19.0786C86.2989 18.5441 89.3703 18.1428 92.4569 17.8789C94.0001 29.3997 95.1825 40.9549 96.0085 52.5216L96.0401 52.9643L96.4829 52.9327C99.3352 52.729 102.211 52.7032 105.095 52.8531L105.539 52.8762L105.561 52.4324C106.15 40.846 106.383 29.2297 106.255 17.6018C109.351 17.7449 112.45 18.0223 115.54 18.4402L116.004 18.503L116.042 18.0359C116.24 15.5732 116.422 13.1082 116.587 10.6408L116.615 10.2251L116.201 10.171C104.557 8.6472 92.8138 8.94059 81.387 10.9945L80.9226 11.078L81.0343 11.5365C81.6184 13.9341 82.1884 16.3364 82.7418 18.741L82.8363 19.1514L83.2511 19.0786Z" stroke="#B99410" stroke-opacity="0.4" stroke-width="0.887779" shape-rendering="crispEdges"/>
</g>
</g>
<defs>
<filter id="filter0_d_173_114" x="115.289" y="9.66223" width="32.5358" height="53.8644" filterUnits="userSpaceOnUse" color-interpolation-filters="sRGB">
<feFlood flood-opacity="0" result="BackgroundImageFix"/>
<feColorMatrix in="SourceAlpha" type="matrix" values="0 0 0 0 0 0 0 0 0 0 0 0 0 0 0 0 0 0 127 0" result="hardAlpha"/>
<feOffset dy="4.55547"/>
<feGaussianBlur stdDeviation="2.27774"/>
<feComposite in2="hardAlpha" operator="out"/>
<feColorMatrix type="matrix" values="0 0 0 0 0 0 0 0 0 0 0 0 0 0 0 0 0 0 0.25 0"/>
<feBlend mode="normal" in2="BackgroundImageFix" result="effect1_dropShadow_173_114"/>
<feBlend mode="normal" in="SourceGraphic" in2="effect1_dropShadow_173_114" result="shape"/>
</filter>
<filter id="filter1_d_173_114" x="140.108" y="10.5145" width="42.9154" height="55.614" filterUnits="userSpaceOnUse" color-interpolation-filters="sRGB">
<feFlood flood-opacity="0" result="BackgroundImageFix"/>
<feColorMatrix in="SourceAlpha" type="matrix" values="0 0 0 0 0 0 0 0 0 0 0 0 0 0 0 0 0 0 127 0" result="hardAlpha"/>
<feOffset dy="4.55547"/>
<feGaussianBlur stdDeviation="2.27774"/>
<feComposite in2="hardAlpha" operator="out"/>
<feColorMatrix type="matrix" values="0 0 0 0 0 0 0 0 0 0 0 0 0 0 0 0 0 0 0.25 0"/>
<feBlend mode="normal" in2="BackgroundImageFix" result="effect1_dropShadow_173_114"/>
<feBlend mode="normal" in="SourceGraphic" in2="effect1_dropShadow_173_114" result="shape"/>
</filter>
<filter id="filter2_d_173_114" x="176.361" y="13.3884" width="35.3089" height="55.2916" filterUnits="userSpaceOnUse" color-interpolation-filters="sRGB">
<feFlood flood-opacity="0" result="BackgroundImageFix"/>
<feColorMatrix in="SourceAlpha" type="matrix" values="0 0 0 0 0 0 0 0 0 0 0 0 0 0 0 0 0 0 127 0" result="hardAlpha"/>
<feOffset dy="4.55547"/>
<feGaussianBlur stdDeviation="2.27774"/>
<feComposite in2="hardAlpha" operator="out"/>
<feColorMatrix type="matrix" values="0 0 0 0 0 0 0 0 0 0 0 0 0 0 0 0 0 0 0.25 0"/>
<feBlend mode="normal" in2="BackgroundImageFix" result="effect1_dropShadow_173_114"/>
<feBlend mode="normal" in="SourceGraphic" in2="effect1_dropShadow_173_114" result="shape"/>
</filter>
<filter id="filter3_d_173_114" x="198.151" y="32.7622" width="32.4061" height="29.8895" filterUnits="userSpaceOnUse" color-interpolation-filters="sRGB">
<feFlood flood-opacity="0" result="BackgroundImageFix"/>
<feColorMatrix in="SourceAlpha" type="matrix" values="0 0 0 0 0 0 0 0 0 0 0 0 0 0 0 0 0 0 127 0" result="hardAlpha"/>
<feOffset dy="4.55547"/>
<feGaussianBlur stdDeviation="2.27774"/>
<feComposite in2="hardAlpha" operator="out"/>
<feColorMatrix type="matrix" values="0 0 0 0 0 0 0 0 0 0 0 0 0 0 0 0 0 0 0.25 0"/>
<feBlend mode="normal" in2="BackgroundImageFix" result="effect1_dropShadow_173_114"/>
<feBlend mode="normal" in="SourceGraphic" in2="effect1_dropShadow_173_114" result="shape"/>
</filter>
<filter id="filter4_d_173_114" x="8.39399" y="18.9709" width="34.1952" height="51.465" filterUnits="userSpaceOnUse" color-interpolation-filters="sRGB">
<feFlood flood-opacity="0" result="BackgroundImageFix"/>
<feColorMatrix in="SourceAlpha" type="matrix" values="0 0 0 0 0 0 0 0 0 0 0 0 0 0 0 0 0 0 127 0" result="hardAlpha"/>
<feOffset dy="4.55547"/>
<feGaussianBlur stdDeviation="2.27774"/>
<feComposite in2="hardAlpha" operator="out"/>
<feColorMatrix type="matrix" values="0 0 0 0 0 0 0 0 0 0 0 0 0 0 0 0 0 0 0.25 0"/>
<feBlend mode="normal" in2="BackgroundImageFix" result="effect1_dropShadow_173_114"/>
<feBlend mode="normal" in="SourceGraphic" in2="effect1_dropShadow_173_114" result="shape"/>
</filter>
<filter id="filter5_d_173_114" x="31.1342" y="8.07776" width="54.9354" height="58.1598" filterUnits="userSpaceOnUse" color-interpolation-filters="sRGB">
<feFlood flood-opacity="0" result="BackgroundImageFix"/>
<feColorMatrix in="SourceAlpha" type="matrix" values="0 0 0 0 0 0 0 0 0 0 0 0 0 0 0 0 0 0 127 0" result="hardAlpha"/>
<feOffset dy="4.55547"/>
<feGaussianBlur stdDeviation="2.27774"/>
<feComposite in2="hardAlpha" operator="out"/>
<feColorMatrix type="matrix" values="0 0 0 0 0 0 0 0 0 0 0 0 0 0 0 0 0 0 0.25 0"/>
<feBlend mode="normal" in2="BackgroundImageFix" result="effect1_dropShadow_173_114"/>
<feBlend mode="normal" in="SourceGraphic" in2="effect1_dropShadow_173_114" result="shape"/>
</filter>
<filter id="filter6_d_173_114" x="71.9899" y="22.455" width="19.2818" height="15.5786" filterUnits="userSpaceOnUse" color-interpolation-filters="sRGB">
<feFlood flood-opacity="0" result="BackgroundImageFix"/>
<feColorMatrix in="SourceAlpha" type="matrix" values="0 0 0 0 0 0 0 0 0 0 0 0 0 0 0 0 0 0 127 0" result="hardAlpha"/>
<feOffset dy="4.55547"/>
<feGaussianBlur stdDeviation="2.27774"/>
<feComposite in2="hardAlpha" operator="out"/>
<feColorMatrix type="matrix" values="0 0 0 0 0 0 0 0 0 0 0 0 0 0 0 0 0 0 0.25 0"/>
<feBlend mode="normal" in2="BackgroundImageFix" result="effect1_dropShadow_173_114"/>
<feBlend mode="normal" in="SourceGraphic" in2="effect1_dropShadow_173_114" result="shape"/>
</filter>
<filter id="filter7_d_173_114" x="72.8896" y="33.2201" width="17.7728" height="18.2322" filterUnits="userSpaceOnUse" color-interpolation-filters="sRGB">
<feFlood flood-opacity="0" result="BackgroundImageFix"/>
<feColorMatrix in="SourceAlpha" type="matrix" values="0 0 0 0 0 0 0 0 0 0 0 0 0 0 0 0 0 0 127 0" result="hardAlpha"/>
<feOffset dy="4.55547"/>
<feGaussianBlur stdDeviation="2.27774"/>
<feComposite in2="hardAlpha" operator="out"/>
<feColorMatrix type="matrix" values="0 0 0 0 0 0 0 0 0 0 0 0 0 0 0 0 0 0 0.25 0"/>
<feBlend mode="normal" in2="BackgroundImageFix" result="effect1_dropShadow_173_114"/>
<feBlend mode="normal" in="SourceGraphic" in2="effect1_dropShadow_173_114" result="shape"/>
</filter>
<filter id="filter8_d_173_114" x="68.7255" y="12.8503" width="17.3548" height="23.6658" filterUnits="userSpaceOnUse" color-interpolation-filters="sRGB">
<feFlood flood-opacity="0" result="BackgroundImageFix"/>
<feColorMatrix in="SourceAlpha" type="matrix" values="0 0 0 0 0 0 0 0 0 0 0 0 0 0 0 0 0 0 127 0" result="hardAlpha"/>
<feOffset dy="4.55547"/>
<feGaussianBlur stdDeviation="2.27774"/>
<feComposite in2="hardAlpha" operator="out"/>
<feColorMatrix type="matrix" values="0 0 0 0 0 0 0 0 0 0 0 0 0 0 0 0 0 0 0.25 0"/>
<feBlend mode="normal" in2="BackgroundImageFix" result="effect1_dropShadow_173_114"/>
<feBlend mode="normal" in="SourceGraphic" in2="effect1_dropShadow_173_114" result="shape"/>
</filter>
<filter id="filter9_d_173_114" x="58.8552" y="16.1498" width="13.1842" height="19.0323" filterUnits="userSpaceOnUse" color-interpolation-filters="sRGB">
<feFlood flood-opacity="0" result="BackgroundImageFix"/>
<feColorMatrix in="SourceAlpha" type="matrix" values="0 0 0 0 0 0 0 0 0 0 0 0 0 0 0 0 0 0 127 0" result="hardAlpha"/>
<feOffset dy="4.55547"/>
<feGaussianBlur stdDeviation="2.27774"/>
<feComposite in2="hardAlpha" operator="out"/>
<feColorMatrix type="matrix" values="0 0 0 0 0 0 0 0 0 0 0 0 0 0 0 0 0 0 0.25 0"/>
<feBlend mode="normal" in2="BackgroundImageFix" result="effect1_dropShadow_173_114"/>
<feBlend mode="normal" in="SourceGraphic" in2="effect1_dropShadow_173_114" result="shape"/>
</filter>
<filter id="filter10_d_173_114" x="64.561" y="18.4106" width="12.7704" height="16.4619" filterUnits="userSpaceOnUse" color-interpolation-filters="sRGB">
<feFlood flood-opacity="0" result="BackgroundImageFix"/>
<feColorMatrix in="SourceAlpha" type="matrix" values="0 0 0 0 0 0 0 0 0 0 0 0 0 0 0 0 0 0 127 0" result="hardAlpha"/>
<feOffset dy="4.55547"/>
<feGaussianBlur stdDeviation="2.27774"/>
<feComposite in2="hardAlpha" operator="out"/>
<feColorMatrix type="matrix" values="0 0 0 0 0 0 0 0 0 0 0 0 0 0 0 0 0 0 0.25 0"/>
<feBlend mode="normal" in2="BackgroundImageFix" result="effect1_dropShadow_173_114"/>
<feBlend mode="normal" in="SourceGraphic" in2="effect1_dropShadow_173_114" result="shape"/>
</filter>
<filter id="filter11_d_173_114" x="73.3286" y="30.8663" width="15.5421" height="13.0887" filterUnits="userSpaceOnUse" color-interpolation-filters="sRGB">
<feFlood flood-opacity="0" result="BackgroundImageFix"/>
<feColorMatrix in="SourceAlpha" type="matrix" values="0 0 0 0 0 0 0 0 0 0 0 0 0 0 0 0 0 0 127 0" result="hardAlpha"/>
<feOffset dy="4.55547"/>
<feGaussianBlur stdDeviation="2.27774"/>
<feComposite in2="hardAlpha" operator="out"/>
<feColorMatrix type="matrix" values="0 0 0 0 0 0 0 0 0 0 0 0 0 0 0 0 0 0 0.25 0"/>
<feBlend mode="normal" in2="BackgroundImageFix" result="effect1_dropShadow_173_114"/>
<feBlend mode="normal" in="SourceGraphic" in2="effect1_dropShadow_173_114" result="shape"/>
</filter>
<filter id="filter12_d_173_114" x="32.9628" y="43.0824" width="20.0665" height="25.9995" filterUnits="userSpaceOnUse" color-interpolation-filters="sRGB">
<feFlood flood-opacity="0" result="BackgroundImageFix"/>
<feColorMatrix in="SourceAlpha" type="matrix" values="0 0 0 0 0 0 0 0 0 0 0 0 0 0 0 0 0 0 127 0" result="hardAlpha"/>
<feOffset dy="4.55547"/>
<feGaussianBlur stdDeviation="2.27774"/>
<feComposite in2="hardAlpha" operator="out"/>
<feColorMatrix type="matrix" values="0 0 0 0 0 0 0 0 0 0 0 0 0 0 0 0 0 0 0.25 0"/>
<feBlend mode="normal" in2="BackgroundImageFix" result="effect1_dropShadow_173_114"/>
<feBlend mode="normal" in="SourceGraphic" in2="effect1_dropShadow_173_114" result="shape"/>
</filter>
<filter id="filter13_d_173_114" x="61.2131" y="25.9076" width="21.392" height="20.135" filterUnits="userSpaceOnUse" color-interpolation-filters="sRGB">
<feFlood flood-opacity="0" result="BackgroundImageFix"/>
<feColorMatrix in="SourceAlpha" type="matrix" values="0 0 0 0 0 0 0 0 0 0 0 0 0 0 0 0 0 0 127 0" result="hardAlpha"/>
<feOffset dy="4.55547"/>
<feGaussianBlur stdDeviation="2.27774"/>
<feComposite in2="hardAlpha" operator="out"/>
<feColorMatrix type="matrix" values="0 0 0 0 0 0 0 0 0 0 0 0 0 0 0 0 0 0 0.25 0"/>
<feBlend mode="normal" in2="BackgroundImageFix" result="effect1_dropShadow_173_114"/>
<feBlend mode="normal" in="SourceGraphic" in2="effect1_dropShadow_173_114" result="shape"/>
</filter>
<filter id="filter14_d_173_114" x="75.8242" y="8.76453" width="45.8165" height="53.7851" filterUnits="userSpaceOnUse" color-interpolation-filters="sRGB">
<feFlood flood-opacity="0" result="BackgroundImageFix"/>
<feColorMatrix in="SourceAlpha" type="matrix" values="0 0 0 0 0 0 0 0 0 0 0 0 0 0 0 0 0 0 127 0" result="hardAlpha"/>
<feOffset dy="4.55547"/>
<feGaussianBlur stdDeviation="2.27774"/>
<feComposite in2="hardAlpha" operator="out"/>
<feColorMatrix type="matrix" values="0 0 0 0 0 0 0 0 0 0 0 0 0 0 0 0 0 0 0.25 0"/>
<feBlend mode="normal" in2="BackgroundImageFix" result="effect1_dropShadow_173_114"/>
<feBlend mode="normal" in="SourceGraphic" in2="effect1_dropShadow_173_114" result="shape"/>
</filter>
<linearGradient id="paint0_linear_173_114" x1="132.118" y1="18.8204" x2="132.157" y2="35.6337" gradientUnits="userSpaceOnUse">
<stop stop-color="#FDFFE0"/>
<stop offset="0.535" stop-color="#F7CA7F"/>
<stop offset="1" stop-color="#F4B45A"/>
</linearGradient>
<linearGradient id="paint1_linear_173_114" x1="142.38" y1="9.8246" x2="121.294" y2="11.3776" gradientUnits="userSpaceOnUse">
<stop stop-color="#AA823D"/>
<stop offset="0.699511" stop-color="#EFE288"/>
<stop offset="1" stop-color="#D1B85A"/>
</linearGradient>
<linearGradient id="paint2_linear_173_114" x1="162.369" y1="20.0336" x2="162.397" y2="37.4976" gradientUnits="userSpaceOnUse">
<stop stop-color="#FDFFE0"/>
<stop offset="0.535" stop-color="#F7CA7F"/>
<stop offset="1" stop-color="#F4B45A"/>
</linearGradient>
<linearGradient id="paint3_linear_173_114" x1="177.491" y1="10.6897" x2="146.589" y2="13.9185" gradientUnits="userSpaceOnUse">
<stop stop-color="#AA823D"/>
<stop offset="0.699511" stop-color="#EFE288"/>
<stop offset="1" stop-color="#D1B85A"/>
</linearGradient>
<linearGradient id="paint4_linear_173_114" x1="194.624" y1="22.8796" x2="194.661" y2="40.1876" gradientUnits="userSpaceOnUse">
<stop stop-color="#FDFFE0"/>
<stop offset="0.535" stop-color="#F7CA7F"/>
<stop offset="1" stop-color="#F4B45A"/>
</linearGradient>
<linearGradient id="paint5_linear_173_114" x1="206.102" y1="13.6192" x2="182.541" y2="15.5046" gradientUnits="userSpaceOnUse">
<stop stop-color="#AA823D"/>
<stop offset="0.699511" stop-color="#EFE288"/>
<stop offset="1" stop-color="#D1B85A"/>
</linearGradient>
<linearGradient id="paint6_linear_173_114" x1="214.896" y1="37.3453" x2="214.904" y2="44.7405" gradientUnits="userSpaceOnUse">
<stop stop-color="#FDFFE0"/>
<stop offset="0.535" stop-color="#F7CA7F"/>
<stop offset="1" stop-color="#F4B45A"/>
</linearGradient>
<linearGradient id="paint7_linear_173_114" x1="224.816" y1="33.3886" x2="204.846" y2="36.621" gradientUnits="userSpaceOnUse">
<stop stop-color="#AA823D"/>
<stop offset="0.699511" stop-color="#EFE288"/>
<stop offset="1" stop-color="#D1B85A"/>
</linearGradient>
<linearGradient id="paint8_linear_173_114" x1="26.0994" y1="27.7841" x2="26.1317" y2="43.6201" gradientUnits="userSpaceOnUse">
<stop stop-color="#FDFFE0"/>
<stop offset="0.535" stop-color="#F7CA7F"/>
<stop offset="1" stop-color="#F4B45A"/>
</linearGradient>
<linearGradient id="paint9_linear_173_114" x1="37.0135" y1="19.3112" x2="14.6217" y2="21.1734" gradientUnits="userSpaceOnUse">
<stop stop-color="#AA823D"/>
<stop offset="0.699511" stop-color="#EFE288"/>
<stop offset="1" stop-color="#D1B85A"/>
</linearGradient>
<linearGradient id="paint10_linear_173_114" x1="59.4233" y1="18.0707" x2="59.4467" y2="36.581" gradientUnits="userSpaceOnUse">
<stop stop-color="#FDFFE0"/>
<stop offset="0.535" stop-color="#F7CA7F"/>
<stop offset="1" stop-color="#F4B45A"/>
</linearGradient>
<linearGradient id="paint11_linear_173_114" x1="80.0149" y1="8.16705" x2="38.229" y2="13.7763" gradientUnits="userSpaceOnUse">
<stop stop-color="#AA823D"/>
<stop offset="0.699511" stop-color="#EFE288"/>
<stop offset="1" stop-color="#D1B85A"/>
</linearGradient>
<linearGradient id="paint12_linear_173_114" x1="81.8473" y1="24.4361" x2="81.8483" y2="26.1158" gradientUnits="userSpaceOnUse">
<stop stop-color="#FDFFE0"/>
<stop offset="0.535" stop-color="#F7CA7F"/>
<stop offset="1" stop-color="#F4B45A"/>
</linearGradient>
<linearGradient id="paint13_linear_173_114" x1="85.826" y1="23.5374" x2="78.2275" y2="25.7092" gradientUnits="userSpaceOnUse">
<stop stop-color="#AA823D"/>
<stop offset="0.699511" stop-color="#EFE288"/>
<stop offset="1" stop-color="#D1B85A"/>
</linearGradient>
<linearGradient id="paint14_linear_173_114" x1="81.8767" y1="35.7432" x2="81.8798" y2="38.3107" gradientUnits="userSpaceOnUse">
<stop stop-color="#FDFFE0"/>
<stop offset="0.535" stop-color="#F7CA7F"/>
<stop offset="1" stop-color="#F4B45A"/>
</linearGradient>
<linearGradient id="paint15_linear_173_114" x1="84.8133" y1="34.3695" x2="78.8602" y2="35.1911" gradientUnits="userSpaceOnUse">
<stop stop-color="#AA823D"/>
<stop offset="0.699511" stop-color="#EFE288"/>
<stop offset="1" stop-color="#D1B85A"/>
</linearGradient>
<linearGradient id="paint16_linear_173_114" x1="77.5447" y1="16.5328" x2="77.5557" y2="21.2544" gradientUnits="userSpaceOnUse">
<stop stop-color="#FDFFE0"/>
<stop offset="0.535" stop-color="#F7CA7F"/>
<stop offset="1" stop-color="#F4B45A"/>
</linearGradient>
<linearGradient id="paint17_linear_173_114" x1="80.3773" y1="14.0066" x2="74.556" y2="14.4281" gradientUnits="userSpaceOnUse">
<stop stop-color="#AA823D"/>
<stop offset="0.699511" stop-color="#EFE288"/>
<stop offset="1" stop-color="#D1B85A"/>
</linearGradient>
<linearGradient id="paint18_linear_173_114" x1="65.5064" y1="18.5018" x2="65.5179" y2="21.4785" gradientUnits="userSpaceOnUse">
<stop stop-color="#FDFFE0"/>
<stop offset="0.535" stop-color="#F7CA7F"/>
<stop offset="1" stop-color="#F4B45A"/>
</linearGradient>
<linearGradient id="paint19_linear_173_114" x1="66.5953" y1="16.9092" x2="64.3502" y2="17.0083" gradientUnits="userSpaceOnUse">
<stop stop-color="#AA823D"/>
<stop offset="0.699511" stop-color="#EFE288"/>
<stop offset="1" stop-color="#D1B85A"/>
</linearGradient>
<linearGradient id="paint20_linear_173_114" x1="71.0327" y1="20.3631" x2="71.0402" y2="22.4978" gradientUnits="userSpaceOnUse">
<stop stop-color="#FDFFE0"/>
<stop offset="0.535" stop-color="#F7CA7F"/>
<stop offset="1" stop-color="#F4B45A"/>
</linearGradient>
<linearGradient id="paint21_linear_173_114" x1="71.8875" y1="19.221" x2="70.1257" y2="19.3062" gradientUnits="userSpaceOnUse">
<stop stop-color="#AA823D"/>
<stop offset="0.699511" stop-color="#EFE288"/>
<stop offset="1" stop-color="#D1B85A"/>
</linearGradient>
<linearGradient id="paint22_linear_173_114" x1="81.2913" y1="32.1929" x2="81.2918" y2="33.085" gradientUnits="userSpaceOnUse">
<stop stop-color="#FDFFE0"/>
<stop offset="0.535" stop-color="#F7CA7F"/>
<stop offset="1" stop-color="#F4B45A"/>
</linearGradient>
<linearGradient id="paint23_linear_173_114" x1="83.426" y1="31.7155" x2="79.3554" y2="32.8909" gradientUnits="userSpaceOnUse">
<stop stop-color="#AA823D"/>
<stop offset="0.699511" stop-color="#EFE288"/>
<stop offset="1" stop-color="#D1B85A"/>
</linearGradient>
<linearGradient id="paint24_linear_173_114" x1="43.2327" y1="47.3585" x2="43.243" y2="52.9928" gradientUnits="userSpaceOnUse">
<stop stop-color="#FDFFE0"/>
<stop offset="0.535" stop-color="#F7CA7F"/>
<stop offset="1" stop-color="#F4B45A"/>
</linearGradient>
<linearGradient id="paint25_linear_173_114" x1="47.5832" y1="44.344" x2="38.6732" y2="45.1741" gradientUnits="userSpaceOnUse">
<stop stop-color="#AA823D"/>
<stop offset="0.699511" stop-color="#EFE288"/>
<stop offset="1" stop-color="#D1B85A"/>
</linearGradient>
<linearGradient id="paint26_linear_173_114" x1="72.1801" y1="28.5774" x2="72.1838" y2="32.1984" gradientUnits="userSpaceOnUse">
<stop stop-color="#FDFFE0"/>
<stop offset="0.535" stop-color="#F7CA7F"/>
<stop offset="1" stop-color="#F4B45A"/>
</linearGradient>
<linearGradient id="paint27_linear_173_114" x1="77.1586" y1="26.6401" x2="67.1493" y2="28.3007" gradientUnits="userSpaceOnUse">
<stop stop-color="#AA823D"/>
<stop offset="0.699511" stop-color="#EFE288"/>
<stop offset="1" stop-color="#D1B85A"/>
</linearGradient>
<linearGradient id="paint28_linear_173_114" x1="99.699" y1="17.9032" x2="99.723" y2="34.6767" gradientUnits="userSpaceOnUse">
<stop stop-color="#FDFFE0"/>
<stop offset="0.535" stop-color="#F7CA7F"/>
<stop offset="1" stop-color="#F4B45A"/>
</linearGradient>
<linearGradient id="paint29_linear_173_114" x1="116.133" y1="8.92874" x2="82.6508" y2="12.8873" gradientUnits="userSpaceOnUse">
<stop stop-color="#AA823D"/>
<stop offset="0.699511" stop-color="#EFE288"/>
<stop offset="1" stop-color="#D1B85A"/>
</linearGradient>
</defs>
</svg>
