<svg width="45" height="44" viewBox="0 0 45 44" fill="none" xmlns="http://www.w3.org/2000/svg">
<g id="Lock">
<path id="Vector" d="M36.4097 13.117H31.6171V9.69371C31.6171 7.33312 30.6793 5.06921 29.0101 3.40002C27.3409 1.73083 25.077 0.793091 22.7164 0.793091C20.3558 0.793091 18.0919 1.73083 16.4227 3.40002C14.7536 5.06921 13.8158 7.33312 13.8158 9.69371V13.117H9.02317C8.11525 13.117 7.24452 13.4777 6.60252 14.1197C5.96052 14.7617 5.59985 15.6324 5.59985 16.5403V35.7109C5.59985 36.6188 5.96052 37.4896 6.60252 38.1316C7.24452 38.7736 8.11525 39.1342 9.02317 39.1342H36.4097C37.3176 39.1342 38.1884 38.7736 38.8304 38.1316C39.4724 37.4896 39.833 36.6188 39.833 35.7109V16.5403C39.833 15.6324 39.4724 14.7617 38.8304 14.1197C38.1884 13.4777 37.3176 13.117 36.4097 13.117ZM17.9238 9.69371C17.9238 8.42263 18.4287 7.2036 19.3275 6.3048C20.2263 5.40601 21.4454 4.90107 22.7164 4.90107C23.9875 4.90107 25.2066 5.40601 26.1054 6.3048C27.0041 7.2036 27.5091 8.42263 27.5091 9.69371V13.117H17.9238V9.69371ZM35.725 35.0263H9.70783V17.225H35.725V35.0263ZM25.4551 26.1256C25.4551 26.6673 25.2945 27.1968 24.9935 27.6472C24.6926 28.0975 24.2649 28.4485 23.7645 28.6558C23.2641 28.8631 22.7134 28.9173 22.1822 28.8117C21.6509 28.706 21.1629 28.4452 20.7799 28.0622C20.3969 27.6791 20.1361 27.1912 20.0304 26.6599C19.9247 26.1287 19.979 25.578 20.1863 25.0776C20.3935 24.5772 20.7446 24.1495 21.1949 23.8485C21.6453 23.5476 22.1748 23.387 22.7164 23.387C23.4428 23.387 24.1394 23.6755 24.653 24.1891C25.1666 24.7027 25.4551 25.3993 25.4551 26.1256Z" fill="#F8D48D"/>
</g>
</svg>
